HIERARCHY
ROOT Hips
{
	OFFSET 0.000000 0.000000 0.000000
	CHANNELS 6 Xposition Yposition Zposition Zrotation Yrotation Xrotation 
	JOINT RightUpLeg
	{
		OFFSET -2.901024 0.000000 0.000000
		CHANNELS 3 Zrotation Yrotation Xrotation
		JOINT RightLeg
		{
			OFFSET 0.000000 -9.114855 0.000000
			CHANNELS 3 Zrotation Yrotation Xrotation
			JOINT RightFoot
			{
				OFFSET 0.000000 -8.902458 0.000000
				CHANNELS 3 Zrotation Yrotation Xrotation
				End Site
				{
					OFFSET 0.000000 0.000000 0.000000
				}
			}
		}
	}
	JOINT LeftUpLeg
	{
		OFFSET 2.901024 0.000000 0.000000
		CHANNELS 3 Zrotation Yrotation Xrotation
		JOINT LeftLeg
		{
			OFFSET 0.000000 -9.114855 0.000000
			CHANNELS 3 Zrotation Yrotation Xrotation
			JOINT LeftFoot
			{
				OFFSET 0.000000 -8.902458 0.000000
				CHANNELS 3 Zrotation Yrotation Xrotation
				End Site
				{
					OFFSET 0.000000 0.000000 0.000000
				}
			}
		}
	}
	JOINT Spine
	{
		OFFSET 0.000000 5.156586 0.000000
		CHANNELS 3 Zrotation Yrotation Xrotation
		JOINT Spine1
		{
			OFFSET 0.000000 5.096650 0.000000
			CHANNELS 3 Zrotation Yrotation Xrotation
			JOINT Neck
			{
				OFFSET 0.000000 2.413497 0.000000
				CHANNELS 3 Zrotation Yrotation Xrotation
				JOINT Head
				{
					OFFSET 0.000000 2.324810 0.000000
					CHANNELS 3 Zrotation Yrotation Xrotation
					End Site
					{
						OFFSET 0.000000 0.000000 0.000000
					}
				}
			}
			JOINT LeftArm
			{
				OFFSET 3.322280 0.000000 0.000000
				CHANNELS 3 Zrotation Yrotation Xrotation
				JOINT LeftForeArm
				{
					OFFSET 5.805871 0.000000 0.000000
					CHANNELS 3 Zrotation Yrotation Xrotation
					JOINT LeftHand
					{
						OFFSET 4.961967 0.000000 0.000000
						CHANNELS 3 Zrotation Yrotation Xrotation
						End Site
						{
							OFFSET 0.000000 0.000000 0.000000
						}
					}
				}
			}
			JOINT RightArm
			{
				OFFSET -3.322280 0.000000 0.000000
				CHANNELS 3 Zrotation Yrotation Xrotation
				JOINT RightForeArm
				{
					OFFSET -5.805871 0.000000 0.000000
					CHANNELS 3 Zrotation Yrotation Xrotation
					JOINT RightHand
					{
						OFFSET -4.961967 0.000000 0.000000
						CHANNELS 3 Zrotation Yrotation Xrotation
						End Site
						{
							OFFSET 0.000000 0.000000 0.000000
						}
					}
				}
			}
		}
	}
}
MOTION
Frames: 18
Frame Time: 0.041667
0.139459 -0.019179 0.260957 -3.542015 -28.957550 -169.755814 -70.732558 80.837556 -68.614025 58.562636 -54.875618 -19.215786 0.000000 0.000000 0.000000 151.980192 -55.639998 -150.662362 132.114519 -48.020116 -170.814958 0.000000 0.000000 0.000000 10.139119 38.083093 8.972554 3.094036 -38.264479 31.353229 121.441897 -46.775997 -103.501975 0.000000 0.000000 0.000000 17.743071 -27.425351 -98.040351 -22.200078 -41.894372 -71.666388 0.000000 0.000000 0.000000 -2.045741 33.504988 -135.066608 74.644740 -3.522412 34.414403 0.000000 0.000000 0.000000 
0.174431 0.023849 0.245849 -3.693485 -29.339091 -169.445355 -69.639038 81.590708 -67.649294 57.225633 -54.980243 -19.564717 0.000000 0.000000 0.000000 152.344801 -55.821866 -150.414877 132.106910 -48.316826 -169.729859 0.000000 0.000000 0.000000 10.183763 37.860794 8.848076 3.272417 -38.254814 30.950756 122.284729 -46.830509 -103.806349 0.000000 0.000000 0.000000 18.315176 -28.014506 -98.372407 -25.777849 -45.347006 -68.795223 0.000000 0.000000 0.000000 -3.886357 33.083227 -136.522422 75.338394 -2.479955 33.986830 0.000000 0.000000 0.000000 
0.141847 0.058248 0.199478 -4.054872 -31.214306 -170.103266 -61.686191 81.740958 -60.069772 53.276985 -54.103964 -17.018892 0.000000 0.000000 0.000000 154.231805 -54.130509 -152.662255 134.500877 -48.989429 -169.787356 0.000000 0.000000 0.000000 12.108565 37.115036 11.527302 2.875391 -37.738469 28.445684 125.125336 -49.255984 -107.661642 0.000000 0.000000 0.000000 12.223425 -30.430327 -91.134155 -25.447065 -47.747762 -65.000499 0.000000 0.000000 0.000000 2.344620 35.781251 -130.756718 74.488909 -5.554081 40.644776 0.000000 0.000000 0.000000 
0.054275 0.051033 0.008502 -4.612511 -33.595091 -171.846071 -53.661197 81.411688 -51.133631 54.949183 -52.751723 -17.856012 0.000000 0.000000 0.000000 155.840588 -54.368432 -155.327477 134.969866 -48.497284 -168.587920 0.000000 0.000000 0.000000 15.787977 35.546374 16.647357 2.195754 -37.518625 24.987212 133.023262 -52.410931 -118.165824 0.000000 0.000000 0.000000 -6.792376 -29.270687 -73.628169 -31.982477 -57.117170 -48.600457 0.000000 0.000000 0.000000 24.803707 32.618880 -112.669441 65.597915 -16.022111 66.538357 0.000000 0.000000 0.000000 
-0.108350 -0.142997 -0.146293 -4.568402 -34.694342 -173.494810 -57.381259 81.721342 -54.619500 60.062354 -53.458169 -20.702008 0.000000 0.000000 0.000000 157.323627 -56.374039 -157.400740 136.086192 -48.110425 -168.041792 0.000000 0.000000 0.000000 18.227405 34.373590 19.808047 2.599515 -37.604023 23.049522 138.648961 -52.813799 -126.375083 0.000000 0.000000 0.000000 -22.048530 -24.870013 -62.673222 -35.578128 -59.923217 -33.883862 0.000000 0.000000 0.000000 39.673803 25.684962 -102.051810 51.569277 -20.336837 90.970190 0.000000 0.000000 0.000000 
-0.113943 -0.097398 -0.157585 -4.021679 -33.457053 -174.308668 -67.024981 82.280543 -64.500079 61.832671 -54.674974 -21.417457 0.000000 0.000000 0.000000 158.548512 -57.936342 -159.371509 137.760954 -47.488021 -168.923036 0.000000 0.000000 0.000000 19.408927 33.825139 21.692500 2.936995 -37.869168 21.226478 140.922881 -53.461871 -130.092687 0.000000 0.000000 0.000000 -32.066724 -22.441201 -56.991040 -34.375984 -55.564210 -21.479113 0.000000 0.000000 0.000000 46.052048 25.035874 -97.266292 37.441782 -16.824995 102.849699 0.000000 0.000000 0.000000 
-0.042759 0.012317 -0.124066 -3.880719 -33.904950 -174.784691 -74.963956 83.385948 -72.318815 58.530951 -54.454472 -17.809491 0.000000 0.000000 0.000000 158.385735 -58.867263 -159.709043 134.460115 -47.052538 -167.850383 0.000000 0.000000 0.000000 19.580827 33.825487 22.420057 2.338431 -38.169163 21.692681 143.254571 -53.708892 -131.300292 0.000000 0.000000 0.000000 -34.578792 -20.467864 -55.021849 -49.259843 -54.350909 -5.245782 0.000000 0.000000 0.000000 46.809902 24.253206 -96.984103 45.968389 -15.395822 98.996939 0.000000 0.000000 0.000000 
-0.156876 -0.073623 -0.078827 -3.675518 -35.031835 -175.201346 -70.306648 83.869846 -67.833675 54.240609 -53.736821 -13.693494 0.000000 0.000000 0.000000 160.340863 -58.746443 -161.794313 132.758838 -47.791025 -166.060600 0.000000 0.000000 0.000000 19.743230 33.796176 22.323746 1.828202 -38.078352 22.866575 144.744959 -53.210985 -132.193161 0.000000 0.000000 0.000000 -41.208273 -18.414026 -50.038622 -61.289944 -46.835106 16.640559 0.000000 0.000000 0.000000 50.431252 22.902826 -93.709506 49.377907 -18.189991 104.352088 0.000000 0.000000 0.000000 
-0.092773 0.010689 -0.128192 -4.104332 -35.996716 -175.374669 -73.340235 84.673104 -70.913510 55.533423 -53.991146 -15.073994 0.000000 0.000000 0.000000 157.791208 -58.444221 -159.270640 131.854534 -46.680279 -166.191316 0.000000 0.000000 0.000000 20.641120 33.593821 23.644061 1.186111 -37.992917 22.867989 142.263811 -53.835011 -130.227146 0.000000 0.000000 0.000000 -37.242976 -22.870673 -53.787596 -65.470532 -41.288494 20.846103 0.000000 0.000000 0.000000 48.292091 26.713280 -94.886217 47.056715 -20.028331 111.433601 0.000000 0.000000 0.000000 
-0.097749 -0.039944 -0.135379 -4.327458 -35.806997 -174.032974 -67.838156 83.343300 -65.045449 56.329219 -52.444040 -15.286757 0.000000 0.000000 0.000000 155.910283 -57.894104 -156.623751 129.512080 -47.113450 -166.257678 0.000000 0.000000 0.000000 18.549310 34.773162 20.940001 1.690085 -37.675026 24.637413 139.337048 -52.945130 -126.098242 0.000000 0.000000 0.000000 -19.336238 -29.305757 -66.430980 -78.142917 -56.281773 4.631763 0.000000 0.000000 0.000000 30.148725 33.002583 -108.566567 71.860789 -17.291780 82.553812 0.000000 0.000000 0.000000 
-0.088801 -0.065553 -0.054197 -4.490758 -36.144623 -172.400477 -56.324981 81.408786 -53.827082 56.117801 -50.814606 -13.978302 0.000000 0.000000 0.000000 156.440360 -56.498710 -156.036956 130.040190 -48.539706 -165.669653 0.000000 0.000000 0.000000 15.987769 35.760931 17.611486 2.582133 -37.331212 26.138422 136.006115 -52.892575 -121.582708 0.000000 0.000000 0.000000 -8.610827 -34.788728 -74.606102 -71.683272 -63.079795 -9.914422 0.000000 0.000000 0.000000 15.495078 37.030711 -119.675829 84.979158 -12.928918 66.180093 0.000000 0.000000 0.000000 
-0.036297 0.034014 -0.047627 -4.835288 -36.930047 -172.006157 -48.932705 81.027122 -46.378593 55.037780 -50.701457 -13.910333 0.000000 0.000000 0.000000 155.867895 -55.339408 -155.083803 130.031707 -48.962833 -164.866177 0.000000 0.000000 0.000000 15.075645 35.811549 16.552630 2.724520 -37.179049 27.060429 135.039492 -53.263379 -119.826844 0.000000 0.000000 0.000000 -3.127521 -36.045333 -79.016088 -69.357135 -62.568590 -16.506213 0.000000 0.000000 0.000000 12.600910 37.446901 -122.048896 85.848518 -10.906530 63.149340 0.000000 0.000000 0.000000 
-0.059508 -0.024666 -0.082545 -5.007553 -35.676066 -171.436423 -60.244659 80.865287 -57.459643 57.759153 -52.208791 -17.205240 0.000000 0.000000 0.000000 154.699345 -55.517905 -153.536096 130.510080 -48.443694 -167.131054 0.000000 0.000000 0.000000 14.251862 36.179604 15.075085 2.393569 -38.287370 29.117530 129.959075 -51.230742 -113.711230 0.000000 0.000000 0.000000 6.288091 -32.796734 -88.770951 -61.790283 -62.368165 -30.749624 0.000000 0.000000 0.000000 6.954692 34.184298 -127.247736 88.589357 -8.449973 53.891176 0.000000 0.000000 0.000000 
-0.068550 -0.027535 -0.091769 -4.180482 -32.290877 -170.556954 -61.006976 80.942147 -58.818591 57.446884 -52.925387 -18.472486 0.000000 0.000000 0.000000 156.555886 -56.069897 -154.818286 134.450102 -49.132747 -168.859639 0.000000 0.000000 0.000000 13.027302 36.521042 12.343707 2.670889 -39.012599 30.492826 127.036970 -48.844991 -109.596717 0.000000 0.000000 0.000000 9.181375 -30.908433 -91.874958 -51.526192 -61.140616 -41.561592 0.000000 0.000000 0.000000 1.441817 31.784367 -131.206486 90.502206 -4.704712 43.853834 0.000000 0.000000 0.000000 
-0.053999 -0.021303 -0.072846 -4.281657 -32.455990 -171.063112 -59.695867 80.812408 -57.555791 55.919404 -53.343398 -17.649603 0.000000 0.000000 0.000000 157.799035 -55.413625 -156.529522 137.859787 -48.847003 -170.339112 0.000000 0.000000 0.000000 13.573173 36.228095 13.660714 2.997708 -39.011425 29.041008 127.402357 -50.251006 -110.460066 0.000000 0.000000 0.000000 4.130291 -30.926004 -87.170235 -44.666746 -60.233539 -44.702748 0.000000 0.000000 0.000000 6.119195 32.315435 -127.508676 85.513176 -5.907580 46.687519 0.000000 0.000000 0.000000 
-0.009375 0.027279 -0.078824 -4.124423 -31.441943 -171.662899 -71.221121 82.518582 -68.852057 58.243120 -54.862637 -20.900746 0.000000 0.000000 0.000000 157.953643 -57.757869 -157.001665 137.917038 -47.529367 -170.894297 0.000000 0.000000 0.000000 14.078294 36.203244 14.528728 2.741196 -39.161778 28.825734 127.290957 -49.879041 -111.014268 0.000000 0.000000 0.000000 1.155023 -26.726786 -84.679190 -28.187854 -54.621211 -59.484179 0.000000 0.000000 0.000000 18.377065 28.084056 -119.464448 67.388518 -5.872634 51.956641 0.000000 0.000000 0.000000 
-0.090708 -0.037096 -0.124021 -3.348224 -29.558986 -172.486032 -71.646471 83.740817 -69.943774 57.679001 -56.021543 -21.853890 0.000000 0.000000 0.000000 160.954473 -59.231100 -160.545222 140.052045 -48.209661 -170.882071 0.000000 0.000000 0.000000 15.258332 35.707618 15.306645 2.771161 -38.840328 27.567984 129.887645 -49.467567 -114.153143 0.000000 0.000000 0.000000 -9.669773 -23.998039 -74.779664 -17.196671 -50.803599 -62.498246 0.000000 0.000000 0.000000 30.757185 23.935529 -109.657307 48.315426 -4.646663 59.644600 0.000000 0.000000 0.000000 
-0.101501 -0.041028 -0.137743 -3.259426 -29.299121 -173.601648 -83.027732 83.540686 -80.807551 58.606295 -57.487428 -22.943598 0.000000 0.000000 0.000000 160.353430 -59.641635 -160.699434 142.216778 -46.601049 -172.138580 0.000000 0.000000 0.000000 16.996752 34.959712 18.853154 2.849905 -38.894150 24.684065 132.238391 -51.673127 -117.749456 0.000000 0.000000 0.000000 -18.819067 -21.207881 -68.365167 -16.703076 -50.489400 -54.795425 0.000000 0.000000 0.000000 40.424075 22.779644 -103.232080 34.832524 -7.898776 78.442585 0.000000 0.000000 0.000000 
